<svg width="40" height="40" viewBox="0 0 40 40" fill="none" xmlns="http://www.w3.org/2000/svg">
<g clip-path="url(#clip0_368_23094)">
<path d="M28.7492 15.4946L19.6617 24.5821L17.3898 26.854L15.1187 24.5821L11.332 20.7954L13.6039 18.5235L17.3906 22.3102L26.4773 13.2227L28.7492 15.4946Z" fill="#388E3C"/>
<path d="M7.73435 20.789H1.40625C1.20734 20.789 1.01657 20.71 0.87592 20.5694C0.735268 20.4287 0.65625 20.238 0.65625 20.039C0.65625 19.8401 0.735268 19.6494 0.87592 19.5087C1.01657 19.3681 1.20734 19.289 1.40625 19.289H7.73435C7.93326 19.289 8.12403 19.3681 8.26468 19.5087C8.40533 19.6494 8.48435 19.8401 8.48435 20.039C8.48435 20.238 8.40533 20.4287 8.26468 20.5694C8.12403 20.71 7.93326 20.789 7.73435 20.789ZM38.6707 20.789H32.3437C32.2452 20.7891 32.1476 20.7697 32.0566 20.732C31.9656 20.6943 31.8829 20.6391 31.8133 20.5694C31.7436 20.4998 31.6884 20.4171 31.6507 20.3261C31.613 20.2351 31.5936 20.1375 31.5937 20.039C31.5937 19.8401 31.6727 19.6494 31.8133 19.5087C31.954 19.3681 32.1447 19.289 32.3437 19.289H38.6707C38.8696 19.289 39.0603 19.3681 39.201 19.5087C39.3416 19.6494 39.4207 19.8401 39.4207 20.039C39.4207 20.238 39.3416 20.4287 39.201 20.5694C39.0603 20.71 38.8696 20.789 38.6707 20.789ZM20.0391 8.48435C19.8401 8.48435 19.6494 8.40533 19.5087 8.26468C19.3681 8.12403 19.2891 7.93326 19.2891 7.73435V1.40625C19.2891 1.20734 19.3681 1.01657 19.5087 0.87592C19.6494 0.735268 19.8401 0.65625 20.0391 0.65625C20.238 0.65625 20.4287 0.735268 20.5694 0.87592C20.71 1.01657 20.7891 1.20734 20.7891 1.40625V7.73435C20.7891 7.93326 20.71 8.12403 20.5694 8.26468C20.4287 8.40533 20.238 8.48435 20.0391 8.48435ZM20.0391 39.4697C19.8401 39.4697 19.6494 39.3907 19.5087 39.2501C19.3681 39.1094 19.2891 38.9187 19.2891 38.7197V32.3437C19.2891 32.1447 19.3681 31.954 19.5087 31.8133C19.6494 31.6727 19.8401 31.5937 20.0391 31.5937C20.4534 31.5937 20.7891 31.9293 20.7891 32.3437V38.7197C20.7891 38.9187 20.71 39.1094 20.5694 39.2501C20.4287 39.3907 20.238 39.4697 20.0391 39.4697ZM33.2588 33.9199C33.1602 33.9201 33.0627 33.9007 32.9716 33.863C32.8806 33.8254 32.7979 33.7701 32.7284 33.7003L28.2534 29.2253C28.1127 29.0847 28.0337 28.8939 28.0337 28.695C28.0337 28.4961 28.1127 28.3053 28.2534 28.1646C28.394 28.024 28.5848 27.945 28.7837 27.945C28.9826 27.945 29.1734 28.024 29.3141 28.1646L33.7891 32.6397C33.8939 32.7445 33.9654 32.8782 33.9943 33.0236C34.0232 33.1691 34.0084 33.3199 33.9516 33.457C33.8948 33.594 33.7987 33.7111 33.6754 33.7935C33.5521 33.8759 33.4071 33.9199 33.2588 33.9199ZM6.53065 33.6311C6.38232 33.631 6.23733 33.587 6.114 33.5046C5.99068 33.4222 5.89456 33.3051 5.8378 33.1681C5.78104 33.031 5.76618 32.8802 5.79512 32.7347C5.82405 32.5893 5.89547 32.4556 6.00035 32.3507L10.4816 27.8696C10.623 27.7328 10.8125 27.6571 11.0093 27.6588C11.206 27.6605 11.3942 27.7394 11.5333 27.8785C11.6724 28.0176 11.7513 28.2058 11.753 28.4026C11.7546 28.5993 11.6789 28.7888 11.5421 28.9303L7.06095 33.4114C6.99138 33.4811 6.90873 33.5364 6.81772 33.5741C6.72671 33.6118 6.62916 33.6312 6.53065 33.6311ZM28.3974 11.7598C28.249 11.7599 28.104 11.7159 27.9807 11.6335C27.8573 11.5511 27.7612 11.4339 27.7044 11.2969C27.6476 11.1599 27.6328 11.0091 27.6617 10.8636C27.6906 10.7181 27.7621 10.5844 27.867 10.4795L32.3413 6.00525C32.4821 5.86561 32.6725 5.78745 32.8709 5.78787C33.0692 5.7883 33.2593 5.86727 33.3996 6.00752C33.5398 6.14776 33.6188 6.33785 33.6193 6.53619C33.6197 6.73454 33.5416 6.92498 33.402 7.06585L28.9277 11.5401C28.8581 11.6099 28.7754 11.6652 28.6844 11.7029C28.5934 11.7406 28.4959 11.76 28.3974 11.7598ZM11.3238 12.1029C11.2253 12.1031 11.1278 12.0837 11.0368 12.046C10.9458 12.0083 10.8631 11.953 10.7935 11.8832L6.32425 7.41405C6.18362 7.2734 6.10461 7.08265 6.10461 6.88375C6.10461 6.68485 6.18362 6.4941 6.32425 6.35345C6.4649 6.21282 6.65565 6.13381 6.85455 6.13381C7.05345 6.13381 7.2442 6.21282 7.38485 6.35345L11.854 10.8226C11.9589 10.9275 12.0303 11.0612 12.0593 11.2066C12.0882 11.3521 12.0734 11.5029 12.0166 11.6399C11.9599 11.7769 11.8638 11.8941 11.7405 11.9765C11.6171 12.0589 11.4722 12.1029 11.3238 12.1029Z" fill="#FF9800"/>
<path d="M15.3939 9.39207C15.2438 9.39208 15.0971 9.34703 14.9728 9.26276C14.8486 9.17848 14.7525 9.05887 14.6969 8.91937L13.5165 5.95537C13.4429 5.77057 13.4458 5.5641 13.5244 5.38138C13.603 5.19867 13.751 5.05467 13.9358 4.98107C14.1206 4.90748 14.3271 4.91031 14.5098 4.98894C14.6925 5.06757 14.8365 5.21557 14.9101 5.40037L16.0905 8.36437C16.1359 8.47815 16.1527 8.6013 16.1395 8.72306C16.1262 8.84483 16.0834 8.9615 16.0147 9.06288C15.9459 9.16427 15.8534 9.24728 15.7452 9.30466C15.637 9.36205 15.5164 9.39206 15.3939 9.39207ZM8.58634 16.2839C8.49586 16.2838 8.40613 16.2674 8.32154 16.2353L5.68064 15.2378C5.5885 15.203 5.50411 15.1504 5.4323 15.083C5.36049 15.0156 5.30266 14.9347 5.26212 14.8449C5.22158 14.7552 5.19911 14.6583 5.19601 14.5598C5.19291 14.4614 5.20923 14.3633 5.24404 14.2712C5.27883 14.179 5.33143 14.0946 5.39884 14.0228C5.46625 13.951 5.54714 13.8932 5.6369 13.8527C5.72666 13.8121 5.82353 13.7896 5.92197 13.7865C6.02041 13.7834 6.1185 13.7998 6.21064 13.8346L8.85154 14.8321C8.94368 14.8669 9.02807 14.9195 9.09988 14.9869C9.17169 15.0543 9.22951 15.1352 9.27006 15.2249C9.3106 15.3147 9.33306 15.4116 9.33617 15.51C9.33927 15.6085 9.32295 15.7065 9.28814 15.7987C9.23429 15.9413 9.13829 16.0641 9.01292 16.1507C8.88755 16.2374 8.73875 16.2839 8.58634 16.2839ZM5.94624 26.8315C5.78128 26.8317 5.62086 26.7775 5.48981 26.6773C5.35877 26.5771 5.2644 26.4365 5.22133 26.2773C5.17826 26.1181 5.18889 25.9491 5.25156 25.7965C5.31424 25.6439 5.42547 25.5163 5.56804 25.4333L8.20894 23.8951C8.38073 23.7965 8.58452 23.7699 8.77585 23.8211C8.96717 23.8722 9.1305 23.997 9.23019 24.1681C9.32987 24.3393 9.35782 24.5429 9.30794 24.7345C9.25806 24.9262 9.1344 25.0903 8.96394 25.1912L6.32304 26.7294C6.20873 26.7962 6.07867 26.8315 5.94624 26.8315ZM13.711 34.8041C13.5879 34.804 13.4667 34.7737 13.3581 34.7157C13.2494 34.6577 13.1568 34.5739 13.0882 34.4716C13.0197 34.3693 12.9773 34.2518 12.965 34.1292C12.9527 34.0067 12.9707 33.8831 13.0174 33.7692L14.1841 30.9262C14.2215 30.835 14.2765 30.7522 14.3459 30.6823C14.4153 30.6124 14.4978 30.5569 14.5887 30.5189C14.6796 30.4809 14.777 30.4612 14.8755 30.4609C14.974 30.4605 15.0716 30.4797 15.1627 30.5171C15.2539 30.5545 15.3367 30.6094 15.4066 30.6789C15.4765 30.7483 15.532 30.8308 15.57 30.9216C15.608 31.0125 15.6277 31.11 15.628 31.2085C15.6283 31.307 15.6092 31.4046 15.5718 31.4957L14.4051 34.3387C14.3486 34.4763 14.2525 34.5941 14.1289 34.677C14.0053 34.7598 13.8598 34.8041 13.711 34.8041ZM26.4381 34.8041C26.2919 34.8041 26.1488 34.7614 26.0266 34.6812C25.9043 34.601 25.8081 34.4868 25.7498 34.3527L24.5148 31.5097C24.4367 31.3274 24.4339 31.1216 24.5071 30.9373C24.5802 30.753 24.7234 30.6052 24.9053 30.5262C25.0872 30.4472 25.293 30.4434 25.4776 30.5157C25.6623 30.588 25.8108 30.7306 25.8906 30.9121L27.1256 33.7551C27.1752 33.8692 27.1957 33.9938 27.1851 34.1178C27.1745 34.2417 27.1333 34.3611 27.0651 34.4652C26.9969 34.5692 26.9039 34.6547 26.7944 34.7139C26.685 34.773 26.5626 34.804 26.4381 34.8041ZM34.0259 26.3888C33.9236 26.3887 33.8224 26.3677 33.7285 26.327L31.1965 25.2317C31.1056 25.193 31.0232 25.1366 30.954 25.066C30.8849 24.9953 30.8305 24.9116 30.7938 24.8198C30.7571 24.728 30.7389 24.6299 30.7403 24.531C30.7417 24.4322 30.7627 24.3346 30.8019 24.2438C30.8412 24.1531 30.898 24.071 30.969 24.0023C31.0401 23.9336 31.1241 23.8796 31.2161 23.8435C31.3081 23.8074 31.4064 23.7898 31.5052 23.7917C31.6041 23.7937 31.7015 23.8152 31.792 23.855L34.324 24.9503C34.4825 25.0187 34.6125 25.1397 34.6921 25.2929C34.7717 25.446 34.796 25.622 34.761 25.791C34.726 25.96 34.6337 26.1117 34.4998 26.2206C34.3659 26.3295 34.1985 26.3889 34.0259 26.3888ZM31.2854 15.7851C31.1399 15.7851 30.9974 15.7428 30.8755 15.6633C30.7535 15.5837 30.6574 15.4704 30.5987 15.3372C30.5185 15.1551 30.514 14.9487 30.586 14.7633C30.658 14.5779 30.8007 14.4287 30.9827 14.3485L33.724 13.1411C33.9056 13.0638 34.1103 13.0612 34.2937 13.1338C34.4772 13.2064 34.6246 13.3484 34.7042 13.5289C34.7837 13.7095 34.7889 13.9141 34.7186 14.0985C34.6484 14.2828 34.5083 14.4321 34.3287 14.5139L31.5874 15.7213C31.4923 15.7633 31.3894 15.785 31.2854 15.7851ZM24.9944 9.52227C24.8778 9.52233 24.7627 9.49517 24.6584 9.44295C24.5541 9.39074 24.4634 9.31491 24.3935 9.2215C24.3236 9.12808 24.2765 9.01965 24.2559 8.90483C24.2353 8.79001 24.2417 8.67196 24.2747 8.56007L25.1868 5.46597C25.304 5.06867 25.7209 4.84117 26.1183 4.95867C26.3091 5.01492 26.4697 5.14465 26.5649 5.31932C26.66 5.49399 26.6819 5.69929 26.6256 5.89007L25.7135 8.98417C25.6677 9.13942 25.573 9.27569 25.4434 9.37267C25.3138 9.46964 25.1563 9.52212 24.9944 9.52227Z" fill="#FFC727"/>
</g>
<defs>
<clipPath id="clip0_368_23094">
<rect width="40" height="40" fill="white"/>
</clipPath>
</defs>
</svg>
