<?xml version="1.0" encoding="UTF-8"?>
<svg version="1.1" xmlns="http://www.w3.org/2000/svg" width="3228" height="1444">
<path d="M0 0 C1065.24 0 2130.48 0 3228 0 C3228 476.52 3228 953.04 3228 1444 C2162.76 1444 1097.52 1444 0 1444 C0 967.48 0 490.96 0 0 Z " fill="#FEFEFE" transform="translate(0,0)"/>
<path d="M0 0 C1.11503906 0.24492188 2.23007813 0.48984375 3.37890625 0.7421875 C17.0181506 4.18628719 29.63893654 10.43052882 40 20 C40.85207031 20.78375 41.70414063 21.5675 42.58203125 22.375 C64.07327688 42.99628516 73.62404062 73.4137433 74.23828125 102.69140625 C74.80479525 140.48845288 69.10198642 174.85815653 42.46484375 203.58984375 C22.80313053 222.81532245 -2.99475543 229.55811015 -29.78051758 229.41918945 C-56.172964 228.85107619 -79.92648811 219.88028047 -98.52539062 200.64257812 C-123.77638412 172.51531252 -128.67410279 134.28758595 -127 98 C-125.07320062 68.79377776 -112.45301908 39.88861545 -90.765625 19.9453125 C-65.66861066 -1.13289889 -31.70946091 -7.10096036 0 0 Z " fill="#EE9B2C" transform="translate(1680,666)"/>
<path d="M0 0 C3.93214301 1.58939426 6.33020346 4.16342502 9.25 7.1875 C13.64809191 11.69233812 18.1746678 15.94893314 23 20 C18.70809911 24.64154658 13.83516041 28.16810269 8.6875 31.8125 C7.85154297 32.40998047 7.01558594 33.00746094 6.15429688 33.62304688 C4.10581432 35.0862487 2.05436616 36.54507639 0 38 C0.51949219 38.85980469 1.03898437 39.71960938 1.57421875 40.60546875 C10.59723878 55.79472451 15.37047577 69.63752201 15.26074219 87.37426758 C15.25003826 89.43015151 15.26067887 91.48515844 15.2734375 93.54101562 C15.29894551 116.3898187 7.31545873 135.11099184 -8.375 151.6875 C-25.74611934 168.35596732 -47.39428602 172.90981954 -70.4375 175.1875 C-72.02289673 175.35245927 -73.60818422 175.51847186 -75.19335938 175.68554688 C-86.77024104 176.89778738 -86.77024104 176.89778738 -90.80810547 177.23339844 C-96.02309716 177.69252375 -100.42772263 178.95917275 -105.25 180.875 C-106.2709375 181.25978516 -106.2709375 181.25978516 -107.3125 181.65234375 C-114.69485618 184.46492406 -114.69485618 184.46492406 -120 190 C-120.53678322 193.06813989 -120.51741157 195.92891195 -120 199 C-116.33158541 203.76893897 -110.66466068 204.23994023 -105 205 C-101.10836732 205.15749427 -97.26283351 205.01864209 -93.375 204.8125 C-91.79730835 204.73793579 -91.79730835 204.73793579 -90.18774414 204.66186523 C-81.55965492 204.18205028 -73.44249778 202.77736795 -65 201 C-42.25308674 196.95829494 -16.15943018 196.94760604 3.9375 209.9375 C5.30591663 210.93915062 6.66124171 211.95904165 8 213 C8.61230469 213.43828125 9.22460938 213.8765625 9.85546875 214.328125 C19.66100916 221.86085803 25.83205322 234.88256509 27.6796875 246.92578125 C29.44835796 263.90070386 26.3402155 279.11685128 15.84765625 292.80859375 C-1.19584682 312.72490771 -27.03955531 322.29303297 -52.59179688 324.82128906 C-86.17477093 327.31345624 -122.88950174 320.62513113 -151 301 C-150.04323135 295.4486029 -146.36554271 291.04523362 -143.30834961 286.44433594 C-142.18784868 284.75052708 -141.08901257 283.04389306 -139.99023438 281.3359375 C-138.93352539 279.73878906 -138.93352539 279.73878906 -137.85546875 278.109375 C-137.21246826 277.12936523 -136.56946777 276.14935547 -135.90698242 275.13964844 C-135.27767822 274.43356445 -134.64837402 273.72748047 -134 273 C-129.28655891 273 -126.87319775 274.63674157 -123 277 C-116.78663269 280.63345498 -110.48988386 283.68769785 -103.8125 286.375 C-103.03068359 286.69597656 -102.24886719 287.01695312 -101.44335938 287.34765625 C-89.82741657 291.9017976 -78.63137322 293.53629251 -66.1875 293.4375 C-64.87177002 293.43137695 -63.55604004 293.42525391 -62.20043945 293.41894531 C-52.56108446 293.26405796 -44.06546841 292.3447657 -35 289 C-34.13117188 288.68804688 -33.26234375 288.37609375 -32.3671875 288.0546875 C-22.86375524 284.22109957 -13.60487603 278.02950826 -8.828125 268.71484375 C-6.91983565 262.45889518 -6.72732456 253.21409375 -9.125 247 C-14.76583388 237.9746658 -20.46509745 234.1027635 -30.6875 231.25 C-45.89260216 228.07935082 -60.91472094 229.8926119 -75.94921875 233.02734375 C-93.83889018 236.65469512 -117.16736454 238.31987809 -133.5625 229.1875 C-140.28613967 224.69773734 -144.92889497 218.91184039 -147 211 C-147.85495256 203.85347344 -148.52224049 196.37730262 -144.625 190 C-135.30260334 178.59147262 -122.42926809 172.60187073 -108.265625 169.54296875 C-106.04535532 169.21963533 -106.04535532 169.21963533 -105 168 C-106.11117188 167.443125 -107.22234375 166.88625 -108.3671875 166.3125 C-116.95521667 161.93637265 -124.83285552 157.54391452 -132 151 C-132.63035156 150.44957031 -133.26070312 149.89914062 -133.91015625 149.33203125 C-147.06168316 137.1632558 -154.90432022 117.6544161 -156.22216797 100.02856445 C-157.10493162 76.6807919 -153.2776092 54.80770446 -137 37 C-136.21109375 36.11957031 -135.4221875 35.23914063 -134.609375 34.33203125 C-121.10768727 20.02103182 -102.80768977 10.00983065 -82.88330078 8.81274414 C-79.48224499 8.73219678 -76.08937615 8.72702729 -72.6875 8.75 C-71.55376953 8.74226562 -70.42003906 8.73453125 -69.25195312 8.7265625 C-52.95938954 8.76369655 -36.55456488 11.37971602 -23.05078125 21.05859375 C-22.37402344 21.36925781 -21.69726562 21.67992187 -21 22 C-17.88252997 20.81595144 -16.04536789 19.2157263 -13.90625 16.69921875 C-13.35066406 16.05146484 -12.79507812 15.40371094 -12.22265625 14.73632812 C-11.65417969 14.06021484 -11.08570313 13.38410156 -10.5 12.6875 C-9.64728516 11.69073242 -9.64728516 11.69073242 -8.77734375 10.67382812 C-5.78665843 7.1661914 -2.85588262 3.61885126 0 0 Z " fill="#E28A18" transform="translate(1946,655)"/>
<path d="M0 0 C2.05078125 0.03255208 4.1015625 0.06510417 6.15234375 0.09765625 C24.22265622 48.66162101 24.22265622 48.66162101 25.2250061 51.35543823 C25.88383826 53.12604839 26.54267208 54.89665793 27.20150757 56.66726685 C28.85784757 61.11865813 30.51415705 65.57006076 32.17041016 70.02148438 C35.0783599 77.83694484 37.98641785 85.65236473 40.89573669 93.46731567 C47.36136125 110.83521308 53.82194664 128.20497242 60.2734375 145.578125 C60.54300262 146.30403336 60.81256775 147.02994171 61.09030151 147.77784729 C62.19984032 150.76573353 63.30936467 153.75362514 64.41888046 156.74151993 C76.58418073 189.50265898 76.58418073 189.50265898 88.77337646 222.25491333 C89.89233637 225.25829561 91.01087483 228.26183462 92.12939453 231.26538086 C95.95887331 241.54572025 99.79683659 251.82283736 103.64505005 262.09617615 C105.45350463 266.92433351 107.25980632 271.75329556 109.06565285 276.58242893 C110.56631271 280.59480955 112.06988584 284.60608261 113.57562923 288.61655807 C114.72226893 291.67309505 115.86469603 294.73120648 117.0078125 297.7890625 C117.63906288 299.4662587 117.63906288 299.4662587 118.2830658 301.17733765 C118.66298172 302.19590851 119.04289764 303.21447937 119.43432617 304.26391602 C119.76784592 305.15377701 120.10136566 306.043638 120.44499207 306.96046448 C121.15234375 309.09765625 121.15234375 309.09765625 121.15234375 311.09765625 C107.29234375 311.09765625 93.43234375 311.09765625 79.15234375 311.09765625 C67.19340232 275.35829107 67.19340232 275.35829107 61.90234375 258.97265625 C61.52021729 257.79541992 61.13809082 256.61818359 60.74438477 255.40527344 C60.39947998 254.33180664 60.0545752 253.25833984 59.69921875 252.15234375 C59.39854492 251.21890137 59.09787109 250.28545898 58.78808594 249.32373047 C58.15234375 247.09765625 58.15234375 247.09765625 58.15234375 245.09765625 C18.55234375 245.09765625 -21.04765625 245.09765625 -61.84765625 245.09765625 C-62.83765625 248.72765625 -63.82765625 252.35765625 -64.84765625 256.09765625 C-65.50968715 258.16998562 -66.19448287 260.23539895 -66.91650391 262.28759766 C-67.29344391 263.36465973 -67.67038391 264.4417218 -68.05874634 265.55142212 C-68.45572723 266.67269501 -68.85270813 267.7939679 -69.26171875 268.94921875 C-69.67682709 270.12986908 -70.09193542 271.31051941 -70.5196228 272.52694702 C-71.61121015 275.62800249 -72.706428 278.72774517 -73.80303955 281.82702637 C-74.70177039 284.37125956 -75.59542738 286.91726266 -76.48908424 289.46328163 C-77.55618881 292.50129785 -78.62784204 295.537707 -79.69921875 298.57421875 C-80.10024811 299.71573395 -80.50127747 300.85724915 -80.91445923 302.03335571 C-81.47041275 303.60166641 -81.47041275 303.60166641 -82.03759766 305.20166016 C-82.36386139 306.12556549 -82.69012512 307.04947083 -83.02627563 308.00137329 C-83.84765625 310.09765625 -83.84765625 310.09765625 -84.84765625 311.09765625 C-87.51391655 311.18620786 -90.15412739 311.21290298 -92.8203125 311.1953125 C-93.61795517 311.19389755 -94.41559784 311.1924826 -95.2374115 311.19102478 C-97.7950306 311.18540941 -100.35256343 311.17285437 -102.91015625 311.16015625 C-104.6399727 311.15514323 -106.36979051 311.15057998 -108.09960938 311.14648438 C-112.34899178 311.135435 -116.59830937 311.11816011 -120.84765625 311.09765625 C-122.11724669 297.54595385 -118.72613149 287.87046583 -113.34765625 275.59765625 C-112.66134718 273.98683127 -111.9777498 272.37484824 -111.296875 270.76171875 C-110.18628947 268.13067695 -109.07412071 265.5004504 -107.95376587 262.87355042 C-103.94497935 253.43923522 -100.13782141 243.92680679 -96.33984375 234.40625 C-95.99977169 233.5537863 -95.65969963 232.70132259 -95.30932236 231.82302666 C-93.53737701 227.37972214 -91.76700644 222.93579197 -89.99719238 218.49163818 C-86.84631458 210.58168471 -83.68175422 202.67720685 -80.51804543 194.77237892 C-78.69754217 190.22325034 -76.87800875 185.67373386 -75.05834961 181.12426758 C-72.31930393 174.27655934 -69.58010481 167.42891249 -66.84079647 160.58130932 C-64.73236475 155.31073312 -62.62398292 150.04013697 -60.515625 144.76953125 C-60.0893815 143.70398325 -59.66313801 142.63843525 -59.22397804 141.54059792 C-53.19546035 126.46990041 -47.16909647 111.39834308 -41.14422607 96.32618713 C-37.76585865 87.8747003 -34.38691804 79.42344267 -31.00785065 70.97223568 C-28.21757344 63.9934714 -25.42805062 57.01440619 -22.63906956 50.03512383 C-20.89877304 45.68065829 -19.15774713 41.32648466 -17.41652489 36.97238922 C-16.60998311 34.95512293 -15.80374066 32.93773694 -14.99782753 30.92021942 C-2.7030574 0.14286773 -2.7030574 0.14286773 0 0 Z " fill="#F4D572" transform="translate(1068.84765625,579.90234375)"/>
<path d="M0 0 C4.65657095 4.05010138 8.82868192 8.48135679 12.796875 13.203125 C14.22473075 14.94103702 14.22473075 14.94103702 16.171875 16.83203125 C16.64753906 16.01412109 16.64753906 16.01412109 17.1328125 15.1796875 C26.7573974 -0.3738544 42.84062621 -8.6434392 60.171875 -13.16796875 C79.57473519 -17.51838583 101.83500393 -14.74676644 119.171875 -5.16796875 C122.83429614 -2.78763692 126.02131151 -0.18773267 129.171875 2.83203125 C129.86539063 3.48558594 130.55890625 4.13914062 131.2734375 4.8125 C143.98378024 17.89090286 150.30584194 36.79946813 150.29212952 54.81759644 C150.29341115 55.83596547 150.29341115 55.83596547 150.29471868 56.87490761 C150.29635813 59.13652174 150.2908774 61.39806074 150.28540039 63.65966797 C150.28511816 65.28614805 150.28527695 66.91262827 150.2858429 68.53910828 C150.28612947 72.94564844 150.28025525 77.3521613 150.27326894 81.75869513 C150.26701222 86.36713364 150.26642976 90.97557279 150.26524353 95.58401489 C150.26213706 104.30677385 150.25393287 113.02952025 150.24389404 121.75227368 C150.23271168 131.6845075 150.2272171 141.61674192 150.22219861 151.54898047 C150.2117497 171.97667263 150.1934127 192.40434757 150.171875 212.83203125 C138.621875 212.83203125 127.071875 212.83203125 115.171875 212.83203125 C115.15000122 206.15750732 115.15000122 206.15750732 115.12768555 199.34814453 C115.07719994 184.59600625 115.01072751 169.84397137 114.93616009 155.09193611 C114.89136494 146.15358796 114.85191365 137.21527821 114.82543945 128.27685547 C114.80232654 120.47801906 114.76878282 112.67930586 114.72317344 104.88056743 C114.69941869 100.75854719 114.68057461 96.63664761 114.67426109 92.5145607 C115.81682802 57.33864904 115.81682802 57.33864904 100.796875 26.76953125 C89.2865913 16.52667205 74.99161113 14.95918379 60.18066406 15.65722656 C50.29204201 16.51773378 42.02501529 21.05585608 34.171875 26.83203125 C33.07552734 27.61707031 33.07552734 27.61707031 31.95703125 28.41796875 C25.16082598 33.76623009 20.00602911 40.98453761 18.52485847 49.59201813 C18.19055542 53.90141173 18.23863667 58.20549862 18.28540039 62.52441406 C18.27749597 64.17150036 18.26652413 65.81857431 18.25274658 67.46562195 C18.22421318 71.90107582 18.23816047 76.33546477 18.26018834 80.77091694 C18.27589998 85.41944074 18.25191689 90.06776289 18.23228455 94.71624756 C18.20113554 103.50267187 18.20528356 112.28870458 18.22235912 121.07515311 C18.24007523 131.08499396 18.21806762 141.09462695 18.19285214 151.10443735 C18.14190283 171.68044923 18.14566218 192.25596301 18.171875 212.83203125 C6.621875 212.83203125 -4.928125 212.83203125 -16.828125 212.83203125 C-16.8374707 207.86624023 -16.84681641 202.90044922 -16.85644531 197.78417969 C-16.89023659 181.36359122 -16.9455977 164.94312755 -17.01202774 148.52264023 C-17.05177282 138.56847629 -17.0841883 128.61439089 -17.09912109 118.66015625 C-17.11216113 109.98020186 -17.13918567 101.30042061 -17.18273807 92.62056375 C-17.20530008 88.02809661 -17.22103885 83.4358426 -17.22000885 78.84331512 C-17.21925912 74.51266711 -17.23733468 70.18248929 -17.26929283 65.85196304 C-17.27774851 64.27026899 -17.2795715 62.68852193 -17.27392769 61.10681534 C-17.23353932 48.03786555 -18.69837697 36.72680706 -28.21484375 27.0234375 C-40.42147147 16.78738646 -56.22414645 14.56515514 -71.63671875 15.57763672 C-76.91368594 16.19022582 -81.26879918 18.21916146 -85.828125 20.83203125 C-86.77042969 21.363125 -87.71273437 21.89421875 -88.68359375 22.44140625 C-94.91814838 26.19073841 -100.91586974 30.43297592 -105.828125 35.83203125 C-106.32214876 36.36773711 -106.81617252 36.90344297 -107.3251667 37.45538235 C-113.11820591 44.73371582 -112.674459 52.42242719 -112.60107422 61.27563477 C-112.60925477 62.93212825 -112.62006279 64.58861051 -112.63328552 66.24507141 C-112.66162031 70.71983656 -112.65340322 75.19386265 -112.63841772 79.66866422 C-112.62901389 84.3532377 -112.65351029 89.03763372 -112.67434692 93.72215271 C-112.70864162 102.58299638 -112.7126314 111.44358181 -112.70562184 120.30447859 C-112.69912227 130.39647188 -112.72657646 140.48828452 -112.75682425 150.58022416 C-112.81826102 171.33090116 -112.83276701 192.08125656 -112.828125 212.83203125 C-124.708125 212.83203125 -136.588125 212.83203125 -148.828125 212.83203125 C-148.828125 139.24203125 -148.828125 65.65203125 -148.828125 -10.16796875 C-141.238125 -10.16796875 -133.648125 -10.16796875 -125.828125 -10.16796875 C-123.9730105 -6.50360797 -122.12036568 -2.83815797 -120.27392578 0.83056641 C-119.64483069 2.07868847 -119.01430259 3.3260893 -118.38232422 4.57275391 C-117.47508903 6.36301236 -116.57339904 8.15607753 -115.671875 9.94921875 C-115.12724609 11.02800293 -114.58261719 12.10678711 -114.02148438 13.21826172 C-112.828125 15.83203125 -112.828125 15.83203125 -112.828125 17.83203125 C-109.42905651 14.49913931 -106.25752126 11.05305371 -103.140625 7.45703125 C-78.11855724 -20.07833135 -29.44638031 -22.57284679 0 0 Z " fill="#509A3C" transform="translate(2566.828125,678.16796875)"/>
<path d="M0 0 C15.32001335 12.55133624 22.63142928 32.19305691 25.17944336 51.32519531 C25.30576865 52.27058796 25.43209394 53.21598061 25.56224728 54.19002151 C26.93667047 65.37328119 26.96041841 76.52968156 26.9609375 87.78125 C26.97275076 90.0575646 26.98612436 92.33387156 27.0009613 94.61016846 C27.03671974 100.5309595 27.05722697 106.4516828 27.07250977 112.37255859 C27.09759153 121.88690913 27.13724663 131.40111037 27.19441032 140.91532135 C27.21060405 144.21333956 27.214502 147.5112123 27.21742249 150.80926514 C27.22720209 152.83996834 27.23746591 154.87066929 27.24829102 156.90136719 C27.24573807 157.80332825 27.24318512 158.70528931 27.24055481 159.63458252 C27.30795093 168.09388953 28.44116467 175.97812395 32.39453125 183.546875 C32.88695313 184.51238281 33.379375 185.47789062 33.88671875 186.47265625 C36.03712788 190.1098315 38.05042324 193.37910758 41.75390625 195.53515625 C43.51953125 197.234375 43.51953125 197.234375 43.91015625 201.02734375 C43.88363401 202.49269731 43.83602242 203.95779051 43.76953125 205.421875 C43.75148438 206.17146484 43.7334375 206.92105469 43.71484375 207.69335938 C43.66777234 209.5409121 43.59602891 211.38780659 43.51953125 213.234375 C30.30645754 214.02505095 15.72951688 213.11871138 5.1875 204.01953125 C-0.82971031 197.57956612 -4.63810967 190.53194499 -7.48046875 182.234375 C-8.01414062 182.8634375 -8.5478125 183.4925 -9.09765625 184.140625 C-20.31696299 197.02924035 -34.58823312 207.24408312 -51.48046875 211.234375 C-52.63933594 211.51023437 -53.79820312 211.78609375 -54.9921875 212.0703125 C-71.46395785 215.63101518 -89.64294688 216.66639121 -105.48046875 210.234375 C-106.37636719 209.87214844 -107.27226562 209.50992188 -108.1953125 209.13671875 C-114.73178223 206.16559615 -120.10467195 201.94727794 -125.48046875 197.234375 C-126.11984375 196.67878906 -126.75921875 196.12320313 -127.41796875 195.55078125 C-137.21094137 186.43544736 -144.67869533 172.26456553 -145.6574707 158.79931641 C-146.17162198 136.03327148 -142.62807604 118.16901973 -126.54418945 101.28955078 C-125.20370047 99.92385681 -123.8426296 98.57845407 -122.48046875 97.234375 C-121.81273438 96.56792969 -121.145 95.90148437 -120.45703125 95.21484375 C-99.28014106 75.42294005 -70.5795669 69.1941469 -42.60546875 68.984375 C-41.1975708 68.9702356 -41.1975708 68.9702356 -39.76123047 68.95581055 C-30.97386175 68.99681517 -22.51864082 70.1545677 -14.29296875 73.359375 C-13.37128906 73.71257812 -12.44960937 74.06578125 -11.5 74.4296875 C-10.83355469 74.69523438 -10.16710938 74.96078125 -9.48046875 75.234375 C-11.15244505 48.10018206 -11.15244505 48.10018206 -25.453125 25.79296875 C-40.95123999 13.87823295 -60.26892061 13.45888325 -78.9921875 15.703125 C-92.39644059 17.70790432 -104.23345515 22.80130447 -115.1875 30.6953125 C-117.48046875 32.234375 -117.48046875 32.234375 -119.48046875 32.234375 C-121.36557648 28.61259322 -123.23475027 24.9830786 -125.08959961 21.34570312 C-125.72264923 20.10975683 -126.3599923 18.87599979 -127.00170898 17.64453125 C-127.92389373 15.87302221 -128.8293663 14.09284498 -129.734375 12.3125 C-130.28424072 11.24418945 -130.83410645 10.17587891 -131.40063477 9.07519531 C-132.48046875 6.234375 -132.48046875 6.234375 -132.31445312 3.97509766 C-128.99478653 -2.95383174 -114.59044169 -7.19433301 -107.60546875 -9.74633789 C-73.61899172 -21.57504526 -30.31752412 -21.58034788 0 0 Z " fill="#8F932D" transform="translate(2323.48046875,680.765625)"/>
<path d="M0 0 C15.18118383 14.2121721 21.55016155 36.48605882 22.22631836 56.74194336 C22.32859192 61.31942438 22.34583533 65.89538744 22.33520508 70.47387695 C22.33204077 73.31956182 22.35559932 76.1642081 22.38085938 79.00976562 C22.41764557 89.39999867 21.85704016 98.83493575 19.01953125 108.890625 C18.78983643 109.73713623 18.5601416 110.58364746 18.32348633 111.45581055 C13.15816607 129.50306312 4.48319295 145.62899568 -12.1796875 155.45703125 C-27.92041124 163.51399863 -46.20119251 164.11436194 -62.98046875 158.890625 C-75.88929996 153.95489542 -86.91332107 144.75172928 -92.82470703 132.08105469 C-100.82234082 113.68880177 -103.27218807 96.5294178 -103.29296875 76.703125 C-103.29637268 75.9374823 -103.29977661 75.1718396 -103.30328369 74.38299561 C-103.3737823 46.6147066 -98.12498712 21.70438653 -79.0546875 0.77734375 C-58.17519169 -19.38679461 -21.51081107 -17.82878034 0 0 Z " fill="#FEFEFE" transform="translate(1693.98046875,705.109375)"/>
<path d="M0 0 C32.88714138 -3.76570321 32.88714138 -3.76570321 42.14355469 1.93652344 C47.30330701 7.27182019 50.28721135 13.81121884 53.31884766 20.51416016 C56.15832313 26.40176266 59.89521339 31.66711083 63.5625 37.0625 C64.97879224 39.222098 66.39027915 41.38485527 67.796875 43.55078125 C68.48974609 44.61377441 69.18261719 45.67676758 69.89648438 46.77197266 C70.59064453 47.83722168 71.28480469 48.9024707 72 50 C74.1098001 53.23634103 76.21973704 56.47259274 78.32983398 59.70874023 C79.61364713 61.67801253 80.89704034 63.64755868 82.17993164 65.61743164 C85.09682884 70.09414074 88.02428575 74.56214468 91 79 C99.8101004 68.03232399 108.13323488 56.75458928 116.33105469 45.32617188 C119.02767651 41.56762701 121.73132359 37.8141697 124.4375 34.0625 C124.9644043 33.33168213 125.49130859 32.60086426 126.03417969 31.84790039 C130.75110548 25.31825402 135.5294043 18.83444611 140.33178711 12.36743164 C140.88358643 11.62227295 141.43538574 10.87711426 142.00390625 10.109375 C142.48674072 9.45936523 142.9695752 8.80935547 143.46704102 8.13964844 C145.15224112 5.90244862 145.15224112 5.90244862 146.62963867 2.77978516 C149 0 149 0 150.85975647 -0.52026367 C153.23625749 -0.69610437 155.54047452 -0.67452912 157.921875 -0.5859375 C159.21185394 -0.57320297 159.21185394 -0.57320297 160.52789307 -0.56021118 C163.26987962 -0.52667054 166.00890538 -0.4513951 168.75 -0.375 C170.61063455 -0.34490102 172.47131529 -0.31752509 174.33203125 -0.29296875 C178.88915852 -0.2268776 183.44407766 -0.1233553 188 0 C184.33527058 5.59782622 180.55424955 11.05327429 176.5 16.375 C172.03570328 22.27846349 167.62521398 28.21774982 163.25 34.1875 C158.1610747 41.12325858 152.98109012 47.98343113 147.75 54.8125 C143.4089054 60.48060925 139.10552064 66.15857628 135 72 C130.05536418 79.01683414 124.84701607 85.82326708 119.61914062 92.63085938 C118.32611693 94.31624888 117.03795057 96.00537937 115.75537109 97.69873047 C114.64791547 99.15059092 113.52276275 100.58927553 112.37353516 102.00830078 C110.36659743 104.57006927 109.02231238 106.29131633 108.91796875 109.60546875 C110.30281508 112.67012868 112.07862263 114.7935984 114.3125 117.3125 C118.38003321 122.00222226 122.18623307 126.81964795 125.875 131.8125 C129.85992815 137.1877581 133.92520126 142.47823806 138.125 147.6875 C142.17302233 152.70850456 146.16003294 157.76444414 150.07958984 162.88671875 C153.61391982 167.5045761 157.17783604 172.09885465 160.75 176.6875 C161.34280762 177.44909424 161.93561523 178.21068848 162.54638672 178.99536133 C163.75934681 180.55345805 164.97240086 182.11148163 166.18554688 183.66943359 C167.96287063 185.95230934 169.73942812 188.23577866 171.515625 190.51953125 C172.09199707 191.26058105 172.66836914 192.00163086 173.26220703 192.76513672 C174.41449671 194.24702204 175.56651793 195.72911615 176.71826172 197.21142578 C179.8021246 201.17938166 182.89270959 205.14188191 185.9921875 209.09765625 C186.641875 209.92845703 187.2915625 210.75925781 187.9609375 211.61523438 C189.21679215 213.22093425 190.47454265 214.82515351 191.734375 216.42773438 C192.29382812 217.14380859 192.85328125 217.85988281 193.4296875 218.59765625 C193.92710449 219.23195557 194.42452148 219.86625488 194.93701172 220.51977539 C196 222 196 222 196 223 C156.40194251 226.11313851 156.40194251 226.11313851 148.5859375 219.66015625 C145.45204105 216.01798149 143.3121857 211.91364489 141.29003906 207.57421875 C139.10867936 203.22140712 136.08915278 199.52948557 133.125 195.6875 C131.95721908 194.10038552 130.79319448 192.5105008 129.6328125 190.91796875 C125.81857445 185.72989674 121.91437624 180.61272187 118 175.5 C108.80191117 163.47927622 99.77175893 151.33579456 91 139 C89.82993923 140.58082679 88.66422139 142.1648678 87.5 143.75 C86.8503125 144.63171875 86.200625 145.5134375 85.53125 146.421875 C82.75495215 150.28910814 80.14420135 154.26458714 77.51171875 158.23046875 C74.46205276 162.81686582 71.3785595 167.38039514 68.296875 171.9453125 C67.68859863 172.84660889 67.08032227 173.74790527 66.45361328 174.67651367 C63.92154978 178.4279016 61.38891269 182.17890191 58.85595703 185.9296875 C57.60301269 187.78522757 56.35135876 189.64163966 55.10101318 191.49893188 C53.85995822 193.33320406 52.60985441 195.16138733 51.35064697 196.98324585 C48.36104121 201.33465843 45.58985007 205.65257135 43.15136719 210.33837891 C36.94691497 221.85160135 36.94691497 221.85160135 31.72912598 223.88494873 C25.39496887 225.18680704 19.14457406 224.65171591 12.75 224.125 C10.82980514 224.03455017 8.90919797 223.95244824 6.98828125 223.87890625 C2.31520888 223.68197676 -2.33778854 223.3726966 -7 223 C-2.81048343 216.29334775 1.50448468 209.74627495 6.1875 203.375 C7.32628071 201.81175118 8.46428342 200.24793536 9.6015625 198.68359375 C10.16907227 197.9035498 10.73658203 197.12350586 11.32128906 196.31982422 C13.93121833 192.71314185 16.49975812 189.07780155 19.0625 185.4375 C19.55322998 184.74060059 20.04395996 184.04370117 20.54956055 183.32568359 C21.53867946 181.92027322 22.5275311 180.5146747 23.51611328 179.10888672 C26.50607518 174.85957924 29.50514745 170.61669567 32.50244141 166.37255859 C34.99285374 162.84548681 37.4811812 159.316985 39.96484375 155.78515625 C45.14134831 148.42893644 50.35523693 141.10224862 55.625 133.8125 C56.16261963 133.06460205 56.70023926 132.3167041 57.25415039 131.54614258 C59.81877712 127.98374928 62.40776889 124.44885084 65.078125 120.96484375 C65.55169434 120.33537842 66.02526367 119.70591309 66.51318359 119.05737305 C67.39247303 117.89039928 68.2852201 116.73338998 69.19384766 115.58911133 C71.10620877 113.0245738 71.98761634 111.33848677 72.10546875 108.1171875 C70.57652387 103.80588709 68.1614785 100.52027526 65.4375 96.875 C64.41344752 95.47796573 63.39135588 94.07949229 62.37109375 92.6796875 C61.83186279 91.94065186 61.29263184 91.20161621 60.73706055 90.44018555 C58.09053218 86.72239904 55.58338732 82.91513183 53.06420898 79.11035156 C49.68882906 74.0243267 46.24838655 68.98276092 42.8125 63.9375 C41.70068359 62.30361328 41.70068359 62.30361328 40.56640625 60.63671875 C36.22031146 54.2513862 31.8643621 47.87285793 27.5 41.5 C25.9296202 39.20523541 24.35948706 36.91030242 22.78955078 34.61523438 C21.47862601 32.69946 20.16700368 30.7841629 18.85498047 28.86914062 C16.92761204 26.0555396 15.00328954 23.23987293 13.08056641 20.4230957 C11.96700114 18.79318054 10.8507244 17.16511891 9.734375 15.53710938 C9.04730469 14.52970703 8.36023437 13.52230469 7.65234375 12.484375 C6.73956665 11.14971191 6.73956665 11.14971191 5.80834961 9.78808594 C3.73468557 6.59094224 1.86474415 3.32298075 0 0 Z " fill="#F2BE56" transform="translate(1209,668)"/>
<path d="M0 0 C0.68835938 0.39445313 1.37671875 0.78890625 2.0859375 1.1953125 C17.33386498 10.55807499 28.27400174 25.56726301 32.58642578 42.94189453 C33.91614015 49.55906818 33.99681395 56.27425822 34 63 C34.02320313 64.12148438 34.04640625 65.24296875 34.0703125 66.3984375 C33.76351904 79.93143795 27.55656077 93.6872892 19 104 C18.43023438 104.7528125 17.86046875 105.505625 17.2734375 106.28125 C6.14751959 120.10579481 -11.82563083 127.55189913 -29 130 C-46.87595198 131.66571371 -64.04273526 125.9798077 -78.3125 115.25 C-92.84618434 102.78576007 -102.24543016 84.9582308 -104.21875 65.88574219 C-105.59753362 46.97055443 -99.41511393 28.69609519 -87.09375 14.2421875 C-64.63100176 -9.81306901 -28.87594276 -17.42733109 0 0 Z " fill="#46936A" transform="translate(586,899)"/>
<path d="M0 0 C13.82353368 11.0630738 23.73459597 26.19770001 26 44 C27.57490353 65.29400819 22.54958027 84.18390114 8.5012207 100.53662109 C3.20001427 106.27770522 -3.20733049 110.2416607 -10 114 C-10.90105469 114.51304687 -11.80210937 115.02609375 -12.73046875 115.5546875 C-21.63684729 119.49179629 -30.13773255 120.52879831 -39.8125 120.4375 C-40.9581543 120.42847656 -42.10380859 120.41945313 -43.28417969 120.41015625 C-60.92361667 120.04945206 -75.8478256 113.71471467 -88.68359375 101.4921875 C-103.08318212 85.99988163 -109.60435242 69.69038645 -109.25390625 48.5234375 C-108.60272384 39.48702928 -106.21860723 31.0037959 -102 23 C-101.40445313 21.83597656 -101.40445313 21.83597656 -100.796875 20.6484375 C-94.40361132 9.07442566 -85.56238118 0.30521664 -74 -6 C-73.20078125 -6.47050781 -72.4015625 -6.94101562 -71.578125 -7.42578125 C-48.95485218 -19.95730002 -20.0341616 -15.11821607 0 0 Z " fill="#FA7529" transform="translate(762,621)"/>
<path d="M0 0 C0.71220703 0.16016602 1.42441406 0.32033203 2.15820312 0.48535156 C6.49264481 1.49102744 10.73799049 2.72681496 15 4 C16.47834774 4.39112934 17.95757252 4.7789536 19.4375 5.1640625 C52.07129928 13.93691102 82.74442718 31.74026065 108 54 C108.75925781 54.64839844 109.51851562 55.29679688 110.30078125 55.96484375 C114.52465015 59.5817878 118.46589243 63.40504438 122.3359375 67.3984375 C123.92422733 69.08628724 123.92422733 69.08628724 126 70 C126 70.66 126 71.32 126 72 C125.11199707 72.03589233 125.11199707 72.03589233 124.20605469 72.07250977 C98.51271536 73.27796798 76.45904079 80.62782529 58 99 C54.6243652 97.55543788 52.65639517 95.7553975 50.1875 93.0625 C29.22618353 71.72504245 -0.26036767 58.55447567 -29 52 C-29.87897949 51.78972168 -30.75795898 51.57944336 -31.66357422 51.36279297 C-63.49565172 43.94098867 -97.61301661 46.96362915 -128.55688477 56.71313477 C-136.21793818 59.07112312 -142.99393731 60.1164437 -150.8125 57.9375 C-155.61589559 55.01778895 -158.23225435 51.30323694 -160 46 C-160.72808845 39.56161785 -160.65530562 34.19522044 -156.64477539 28.8972168 C-151.04855722 22.44208671 -143.29368177 18.9155501 -135.6875 15.375 C-134.71876953 14.9109375 -133.75003906 14.446875 -132.75195312 13.96875 C-92.35856886 -5.1096463 -43.54037547 -9.94958781 0 0 Z " fill="#FB8025" transform="translate(601,516)"/>
<path d="M0 0 C12.32402863 10.53384099 21.0191665 24.46850333 23.12109375 40.7421875 C24.58957968 59.78588595 21.8610049 78.91323926 9.07421875 93.984375 C8.51089844 94.62761719 7.94757813 95.27085937 7.3671875 95.93359375 C6.66142578 96.85205078 6.66142578 96.85205078 5.94140625 97.7890625 C-0.06566027 105.4544178 -8.0625596 109.9054845 -16.8203125 113.80859375 C-17.48530762 114.10701172 -18.15030273 114.40542969 -18.83544922 114.71289062 C-33.0050012 120.75387229 -53.1896877 120.12920609 -67.375 114.48046875 C-86.5571799 105.37238333 -98.99209591 92.17439759 -106.66796875 72.24609375 C-111.49096924 56.45357121 -109.82847715 37.48491654 -102.8828125 22.68359375 C-93.79626995 5.69376849 -79.10164706 -7.23653985 -60.6328125 -13.06640625 C-38.26560195 -17.92994467 -18.08902152 -14.19746645 0 0 Z " fill="#FCD220" transform="translate(410.6328125,610.06640625)"/>
<path d="M0 0 C2.97451592 2.85500412 5.48740656 5.86053201 8 9.125 C21.02025051 25.10730423 38.43550321 34.96145713 58.625 38.25 C59.62917969 38.42273438 60.63335937 38.59546875 61.66796875 38.7734375 C64.11048976 39.19215539 66.55422379 39.60082057 69 40 C68.54166667 41.375 68.08333333 42.75 67.625 44.125 C67.35155762 44.95370605 67.07811523 45.78241211 66.79638672 46.63623047 C66.19577712 48.41891045 65.54996602 50.18645321 64.8828125 51.9453125 C63.64861936 56.2158392 63.26352492 60.45637933 62.875 64.875 C62.7922583 65.81045654 62.7095166 66.74591309 62.62426758 67.7097168 C60.04537811 98.72265171 65.02480976 131.01828502 79 159 C79.55429687 160.18207031 80.10859375 161.36414063 80.6796875 162.58203125 C90.7147407 183.55390509 105.12162825 203.39475559 123.37890625 217.87109375 C135.03427938 227.33782751 135.03427938 227.33782751 136.37109375 235.17578125 C136.56247679 241.33381187 135.10195975 245.37524146 131 250 C126.72395221 254.15502757 122.59705522 255.37204332 116.6875 255.6875 C109.52500263 255.37465529 104.88811441 252.8828 99 249 C97.31197266 247.96746094 97.31197266 247.96746094 95.58984375 246.9140625 C56.43559033 222.8298557 30.43147577 184.17183825 14 142 C13.75451416 141.37246826 13.50902832 140.74493652 13.25610352 140.09838867 C7.03062091 123.86861915 2.63716071 107.16596275 0 90 C-0.14953125 89.07574219 -0.2990625 88.15148437 -0.453125 87.19921875 C-4.93481538 58.64776019 -4.86333712 28.48526026 0 0 Z " fill="#FDD320" transform="translate(295,707)"/>
<path d="M0 0 C5.82798276 3.14427641 9.82328843 6.36956864 11.875 12.8125 C12.15092739 22.24658881 9.92027918 31.65851818 7.875 40.8125 C7.73191406 41.46702148 7.58882812 42.12154297 7.44140625 42.79589844 C-0.35607567 78.2813416 -12.14284861 115.02945875 -35.125 143.8125 C-35.90746094 144.85664062 -36.68992187 145.90078125 -37.49609375 146.9765625 C-50.98743941 164.86430985 -67.17830369 181.37114631 -85.125 194.8125 C-85.70137207 195.24498047 -86.27774414 195.67746094 -86.87158203 196.12304688 C-109.97384466 213.31268653 -139.29108196 231.84113482 -168.125 236.8125 C-167.61453125 236.06419922 -167.61453125 236.06419922 -167.09375 235.30078125 C-154.43765671 216.55226008 -145.47196767 199.88610096 -145.875 176.8125 C-145.88015625 175.63171875 -145.8853125 174.4509375 -145.890625 173.234375 C-145.95682514 165.72065905 -146.38893958 158.28950447 -147.125 150.8125 C-145.50658203 150.42771484 -145.50658203 150.42771484 -143.85546875 150.03515625 C-118.54854605 143.70557055 -97.18316097 130.41923328 -78.125 112.8125 C-76.97451172 111.75095703 -76.97451172 111.75095703 -75.80078125 110.66796875 C-50.96169055 86.70727419 -33.79935643 52.64132924 -27 19 C-25.40817118 11.17350828 -23.37868463 5.83377858 -17.5 0.375 C-11.60891453 -3.50071412 -6.15715551 -2.92717229 0 0 Z " fill="#46936A" transform="translate(783.125,783.1875)"/>
<path d="M0 0 C1.44113159 0.00688843 1.44113159 0.00688843 2.91137695 0.01391602 C11.74133005 0.12522104 20.99983269 0.43744423 29.4375 3.25 C28.77624059 7.43340797 27.39755703 10.98418431 25.71484375 14.86328125 C25.31743736 15.78490303 25.31743736 15.78490303 24.91200256 16.72514343 C24.07087662 18.67293164 23.22305741 20.61772118 22.375 22.5625 C21.80098661 23.88847903 21.2274142 25.21464905 20.65429688 26.54101562 C19.25379428 29.77956966 17.84727678 33.01547053 16.4375 36.25 C12.86105818 35.57580473 9.73377614 34.66203572 6.375 33.25 C-3.51924641 29.10325882 -15.36827237 28.50850156 -25.5625 32.25 C-42.37873525 39.58844586 -53.59478634 53.584524 -60.5625 70.25 C-66.12542802 85.00923323 -65.17414808 100.82342454 -65.17000484 116.34430504 C-65.17316696 120.2534138 -65.19885254 124.16237874 -65.22198486 128.07141113 C-65.26229882 135.44802254 -65.28282715 142.82454611 -65.29595876 150.20125055 C-65.31191296 158.61024585 -65.35036321 167.01909342 -65.39055204 175.42800236 C-65.4726137 192.70198007 -65.52394759 209.97586205 -65.5625 227.25 C-77.4425 227.25 -89.3225 227.25 -101.5625 227.25 C-101.5625 153.66 -101.5625 80.07 -101.5625 4.25 C-89.6825 4.25 -77.8025 4.25 -65.5625 4.25 C-65.5625 15.47 -65.5625 26.69 -65.5625 38.25 C-63.9125 38.58 -62.2625 38.91 -60.5625 39.25 C-60.17771484 38.17492187 -60.17771484 38.17492187 -59.78515625 37.078125 C-52.71055922 20.71388138 -37.54174091 9.83310152 -21.58203125 3.29296875 C-14.17712285 0.73525783 -7.79517832 -0.07691043 0 0 Z " fill="#BE8E22" transform="translate(2124.5625,663.75)"/>
<path d="M0 0 C1.28191978 -0.0049926 1.28191978 -0.0049926 2.58973694 -0.01008606 C4.39062977 -0.01511726 6.19153179 -0.01749557 7.99243164 -0.01733398 C10.68457335 -0.0195006 13.37629095 -0.03764243 16.06835938 -0.05664062 C30.82262688 -0.10601433 45.54382165 0.54800876 59.84765625 4.48046875 C60.67362305 4.69920654 61.49958984 4.91794434 62.35058594 5.14331055 C64.02797035 5.59158816 65.7036606 6.04626176 67.37744141 6.5078125 C69.66823063 7.13590965 71.96524262 7.7324149 74.265625 8.32421875 C84.4736029 11.03493589 93.57337409 15.02539953 102.78515625 20.16796875 C103.70699707 20.6774707 103.70699707 20.6774707 104.64746094 21.19726562 C119.46718387 29.49503633 119.46718387 29.49503633 121.78515625 35.16796875 C122.79106425 42.50415987 122.84135787 49.81325287 118.78515625 56.16796875 C114.88792855 60.12908543 110.90246918 63.45048188 105.22265625 63.60546875 C100.12040246 63.50933933 96.74432282 61.95892994 92.328125 59.53515625 C77.77453552 51.71064578 61.21325063 50.59883652 45.03515625 50.73046875 C44.24967407 50.7331778 43.46419189 50.73588684 42.65490723 50.73867798 C30.30211625 50.80312978 18.70730506 51.7386955 6.78515625 55.16796875 C6.09695801 55.3498877 5.40875977 55.53180664 4.69970703 55.71923828 C-14.90862836 60.90273162 -32.39997677 70.2482599 -47.21484375 84.16796875 C-47.87484375 83.83796875 -48.53484375 83.50796875 -49.21484375 83.16796875 C-49.240625 81.89824219 -49.26640625 80.62851562 -49.29296875 79.3203125 C-49.93585437 57.14617014 -56.00345856 34.98183268 -72.44921875 18.99609375 C-74.21484375 17.16796875 -74.21484375 17.16796875 -74.21484375 15.16796875 C-70.56864576 13.77503918 -66.89561395 12.46659547 -63.21484375 11.16796875 C-62.56580078 10.93239258 -61.91675781 10.69681641 -61.24804688 10.45410156 C-47.20025466 5.40876774 -32.99971246 3.00242637 -18.21484375 1.16796875 C-17.53955124 1.08094193 -16.86425873 0.9939151 -16.16850281 0.9042511 C-10.7619757 0.24626031 -5.44375477 0.00763054 0 0 Z " fill="#FDD220" transform="translate(501.21484375,583.83203125)"/>
<path d="M0 0 C22.11 0 44.22 0 67 0 C67 73.59 67 147.18 67 223 C55.12 223 43.24 223 31 223 C31 158.98 31 94.96 31 29 C20.77 29 10.54 29 0 29 C0 19.43 0 9.86 0 0 Z " fill="#F0AD42" transform="translate(1432,668)"/>
<path d="M0 0 C0.77730469 0.24492188 1.55460937 0.48984375 2.35546875 0.7421875 C14.01448585 4.82736248 21.47841583 12.75611953 28 23 C28.42152344 23.65613281 28.84304688 24.31226563 29.27734375 24.98828125 C37.47841915 39.44074243 36.35672756 58.29141597 32.58642578 73.93798828 C28.83795869 87.11848498 20.49986451 97.96161605 8.65234375 104.74609375 C1.8731892 107.95096652 -3.64042755 109.50998954 -11.1875 109.375 C-12.01830078 109.36412354 -12.84910156 109.35324707 -13.70507812 109.34204102 C-27.89155593 108.97860167 -39.19030188 105.30613319 -49.25 94.9375 C-61.26971167 80.56825622 -65.23014363 62.33499798 -64 44 C-61.78559909 28.75971135 -54.03115676 16.3643339 -42.1875 6.6875 C-30.06319098 -1.88229272 -14.15241608 -4.93491062 0 0 Z " fill="#FEFEFD" transform="translate(1890,693)"/>
<path d="M0 0 C4.81438117 2.67150955 7.5318455 6.33791286 9.75 11.3125 C10.1645771 13.018776 10.51897914 14.7402591 10.828125 16.46875 C11.01608643 17.48130859 11.20404785 18.49386719 11.39770508 19.53710938 C11.5964624 20.61798828 11.79521973 21.69886719 12 22.8125 C20.44889769 66.47091131 42.52657039 104.55571051 79.61328125 130.24609375 C82.28923949 132.00896038 84.98271592 133.69781829 87.75 135.3125 C86.41498697 138.32116351 84.98730696 140.22909458 82.5625 142.4375 C78.26168095 146.61313928 75.04421751 151.32751543 71.75 156.3125 C71.30785156 156.93640625 70.86570312 157.5603125 70.41015625 158.203125 C63.98546246 167.64516699 60.11023794 179.03190604 58.75 190.3125 C54.81285923 188.71683317 52.14701921 185.99904631 49.20703125 183.03515625 C48.67913498 182.50917343 48.15123871 181.98319061 47.60734558 181.44126892 C46.48959418 180.32487687 45.37435797 179.20596166 44.26147461 178.0847168 C42.59242051 176.40510969 40.91317827 174.73624589 39.23242188 173.06835938 C32.62737247 166.47219193 26.5120041 159.67126597 20.75 152.3125 C19.94598755 151.31343628 19.94598755 151.31343628 19.12573242 150.29418945 C-9.62072926 114.45138134 -25.13365928 67.46431392 -25.75 21.625 C-25.76853027 20.79452148 -25.78706055 19.96404297 -25.80615234 19.10839844 C-25.74026127 12.83711904 -24.16448752 7.38871686 -19.76733398 2.74755859 C-13.806701 -2.43103492 -7.09550261 -3.28913018 0 0 Z " fill="#46936A" transform="translate(406.25,755.6875)"/>
<path d="M0 0 C0.69222656 0.32613281 1.38445313 0.65226563 2.09765625 0.98828125 C22.63931472 10.16301408 44.36911378 9.81961391 66 5 C64.83142157 14.97904475 62.80638108 24.34728266 60 34 C59.67902344 35.13824219 59.35804688 36.27648437 59.02734375 37.44921875 C57.23022063 43.59727153 55.10396618 49.39034111 52.34375 55.171875 C51.22266677 57.53136412 50.16745042 59.90233542 49.125 62.296875 C40.78114435 81.11343918 28.97474513 98.12768822 15.34570312 113.48242188 C14.00525128 114.99407801 12.68241981 116.51998328 11.359375 118.046875 C-0.79641802 131.88687749 -20.16325786 151.79438096 -39.11328125 154.43359375 C-46.00976441 154.82336039 -50.77073485 154.01532981 -56.25390625 149.69921875 C-60.01972704 146.03449382 -61.14027213 142.69173854 -61.375 137.5625 C-61.10133036 130.47088674 -58.04085321 124.89055254 -53 120 C-50.30917934 117.74193871 -47.5731604 115.54526976 -44.8359375 113.34375 C-18.93128682 91.93494779 -4.16768002 58.4785588 -0.45703125 25.55859375 C0.34300357 17.04748883 0.24997065 8.53603477 0 0 Z " fill="#FA7828" transform="translate(684,751)"/>
<path d="M0 0 C1.00933594 -0.02900391 2.01867188 -0.05800781 3.05859375 -0.08789062 C12.44240095 -0.16403887 20.99233053 1.92641151 30 4.3125 C30.25658574 11.79691181 30.45116706 19.28086016 30.56993389 26.7686882 C30.62698775 30.247291 30.70413483 33.72285413 30.82983398 37.19970703 C31.73079804 62.78867867 31.73079804 62.78867867 26.29658508 69.43328857 C24.03644377 71.67644475 21.61823879 73.50555258 19 75.3125 C17.08161366 76.91460976 15.16472441 78.51851557 13.25 80.125 C-2.86620871 91.63657765 -19.45233206 94.8544182 -39 93.3125 C-49.00514192 91.56383567 -57.89066944 87.4746168 -64.375 79.5 C-70.8129112 70.17305386 -72.02818038 58.35636688 -71 47.3125 C-67.48193901 31.78154783 -57.88947098 20.27773974 -45 11.3125 C-30.52337977 2.50558497 -16.65600581 0.15479559 0 0 Z " fill="#FEFEFD" transform="translate(2284,774.6875)"/>
<path d="M0 0 C2.21818321 2.21818321 2.66744211 3.53433184 3.62548828 6.48242188 C3.93468201 7.42395111 4.24387573 8.36548035 4.56243896 9.33554077 C4.89503723 10.36949982 5.2276355 11.40345886 5.5703125 12.46875 C5.92353577 13.55080719 6.27675903 14.63286438 6.64068604 15.74771118 C7.80815365 19.32987712 8.96668062 22.91486644 10.125 26.5 C10.93660763 28.99736443 11.74862408 31.49459604 12.56103516 33.99169922 C18.54767325 52.40975638 24.4645882 70.85051136 30.34423828 89.30297852 C33.42124599 98.95793096 36.51317878 108.60714843 39.6640625 118.23828125 C39.95058685 119.11530701 40.23711121 119.99233276 40.53231812 120.89593506 C41.86538001 124.97498026 43.20284878 129.05247926 44.54833984 133.12744141 C45.01156236 134.54193681 45.47462609 135.95648423 45.9375 137.37109375 C46.33839844 138.58724365 46.73929688 139.80339355 47.15234375 141.05639648 C48 144 48 144 48 147 C15.33 147 -17.34 147 -51 147 C-47.6250596 134.62521853 -47.6250596 134.62521853 -46.125 130.37573242 C-45.7854277 129.40766159 -45.44585541 128.43959076 -45.09599304 127.44218445 C-44.73431534 126.42356827 -44.37263763 125.40495209 -44 124.35546875 C-43.61177567 123.25205643 -43.22355133 122.1486441 -42.82356262 121.01179504 C-41.55268341 117.40240132 -40.27638577 113.79494971 -39 110.1875 C-38.10730463 107.65572546 -37.2149172 105.12384473 -36.32299805 102.59179688 C-34.70869242 98.01019236 -33.09296236 93.4290947 -31.47545528 88.84861946 C-28.56496237 80.60648807 -25.66499993 72.36070489 -22.76953125 64.11328125 C-21.51740137 60.54812289 -20.26518065 56.98299646 -19.01293945 53.4178772 C-18.22795693 51.18288412 -17.44312016 48.94783984 -16.65844727 46.71273804 C-11.18068108 31.11450467 -5.62131964 15.54708115 0 0 Z " fill="#FEFEFE" transform="translate(1068,652)"/>
<path d="M0 0 C4.19893204 3.02814548 6.97294479 7.04354584 9.26953125 11.63671875 C9.79503783 18.8624342 10.07916274 25.33112179 6.26953125 31.63671875 C1.74043015 36.74647384 -3.00421518 41.08981203 -9.9921875 41.8984375 C-16.11612917 42.17040428 -20.76129422 41.33016317 -25.73046875 37.63671875 C-30.5120817 33.11917909 -34.26703506 28.71734269 -35.03125 21.98828125 C-35.06971184 13.03949369 -32.91041142 7.1109444 -26.73046875 0.63671875 C-18.40719596 -5.2504742 -8.74404011 -4.80577953 0 0 Z " fill="#F0AC41" transform="translate(1495.73046875,585.36328125)"/>
<path d="M0 0 C0.66 0.33 1.32 0.66 2 1 C1.44570313 1.53109375 0.89140625 2.0621875 0.3203125 2.609375 C-0.40414062 3.31578125 -1.12859375 4.0221875 -1.875 4.75 C-2.95394531 5.79414062 -2.95394531 5.79414062 -4.0546875 6.859375 C-5.86479679 8.85122217 -6.94848086 10.5427658 -8 13 C-8.66 13 -9.32 13 -10 13 C-8.16490101 7.32787586 -4.97304587 3.31536392 0 0 Z " fill="#FC822D" transform="translate(634,869)"/>
</svg>
