<svg width="45" height="44" viewBox="0 0 45 44" fill="none" xmlns="http://www.w3.org/2000/svg">
<path fill-rule="evenodd" clip-rule="evenodd" d="M22.2436 0.240302C21.016 0.372056 19.4023 0.723828 17.7526 1.21935C15.8774 1.78255 15.0493 2.11474 14.7594 2.42013C14.5614 2.62865 14.5477 2.69436 14.5928 3.21933C14.6681 4.096 14.9987 4.60769 15.6654 4.87963C16.0999 5.05683 16.4332 5.02713 17.6443 4.7031C18.9782 4.34623 21.0364 3.93428 22.14 3.80329C22.7357 3.73265 23.1842 3.73197 23.8323 3.80074C24.8988 3.91402 27.0169 4.27814 27.5579 4.44121C30.3416 5.28051 30.9914 5.53117 32.0483 6.17326C32.4799 6.43549 32.8526 6.67346 32.8766 6.70206C32.9642 6.80667 33.7387 7.29606 33.8165 7.29606C33.8606 7.29606 34.0593 7.18116 34.2578 7.04073C34.4564 6.90029 34.6552 6.78539 34.6996 6.78539C34.744 6.78539 34.7933 6.75509 34.8094 6.71815C34.8553 6.61193 35.7547 6.22245 36.4118 6.0244C37.1937 5.78863 38.5019 5.6659 39.3506 5.74872C39.7222 5.78497 40.0264 5.78804 40.0264 5.75544C40.0264 5.6836 37.3726 3.74856 36.4263 3.13048C35.6087 2.59631 34.7415 2.16683 33.3997 1.63147C31.979 1.06462 30.9692 0.789535 29.1709 0.479554C27.712 0.228131 27.4387 0.207363 25.2909 0.185149C24.02 0.172042 22.6488 0.196809 22.2436 0.240302ZM37.2358 7.5354C36.1854 7.82249 35.5117 8.2112 34.7025 8.99704C33.8759 9.79974 33.447 10.501 33.1814 11.4842C33.0582 11.94 33.0363 12.2657 33.0726 13.1014C33.1121 14.0105 33.1523 14.2282 33.3794 14.7629C33.758 15.6541 34.1221 16.1625 34.8513 16.8185C36.7759 18.5496 39.6728 18.7601 41.8667 17.3282C42.4961 16.9175 43.3276 16.0299 43.6693 15.404C44.5054 13.8728 44.5131 11.7983 43.6885 10.288C43.0097 9.04488 41.9 8.13383 40.4623 7.63967C39.6672 7.36628 38.0461 7.31394 37.2358 7.5354ZM35.7104 19.6374C35.6807 19.6842 35.6831 19.7645 35.7156 19.8159C35.748 19.8672 35.771 20.4896 35.7668 21.199C35.76 22.2863 35.7181 22.6757 35.4993 23.6803C35.1772 25.1602 34.5347 26.7808 33.8798 27.7657C33.3875 28.506 32.3658 29.6361 31.6099 30.2765C31.1402 30.6744 30.5268 31.2179 30.2468 31.4841C29.7411 31.9651 29.7377 31.9716 29.7377 32.4643C29.7377 33.0744 29.9358 33.4684 30.4008 33.7833C30.7656 34.0304 31.3455 34.1602 31.6556 34.0641C32.1374 33.9148 34.5316 31.8216 35.4717 30.7276C37.1398 28.7867 37.4968 28.2921 38.2637 26.8603C38.5485 26.3284 38.8575 25.7592 38.9503 25.5953C39.5234 24.5836 40.6718 21.2775 40.8611 20.0943L40.9173 19.7426L40.45 19.8664C39.3275 20.1637 37.428 20.0944 36.298 19.715C36.2575 19.7014 36.2202 19.6888 36.1857 19.6771C35.8738 19.572 35.7962 19.5458 35.7569 19.5728C35.7438 19.5817 35.735 19.5965 35.7233 19.6162L35.7197 19.6222L35.7167 19.6271L35.7154 19.6294L35.7133 19.6326C35.7124 19.6342 35.7114 19.6358 35.7104 19.6374Z" fill="#FF9800"/>
<path d="M7.06764 6.67415C4.14059 7.15444 2.15261 9.35069 2.15182 12.1049C2.1513 13.6628 2.67079 14.9106 3.76183 15.9723C4.94067 17.1194 6.17305 17.6088 7.86441 17.6013C8.95693 17.5966 9.40239 17.5076 10.2502 17.1248C11.4949 16.5628 12.3999 15.6932 12.994 14.4881C13.4054 13.6538 13.5199 13.138 13.5199 12.1186C13.5199 9.99133 12.3791 8.20022 10.4246 7.25853C9.3275 6.72998 8.06573 6.5103 7.06764 6.67415Z" fill="#FFC727"/>
<path d="M18.9258 5.56879C17.6443 5.63041 14.1067 6.34893 13.1365 6.74462L12.8032 6.88063L13.2598 7.32168C13.7819 7.82598 14.3214 8.57105 14.6629 9.25911C14.9143 9.76553 15.2629 10.8272 15.265 11.0928C15.2683 11.4783 15.4048 11.5044 15.8 11.1948C16.9618 10.2851 19.372 9.32141 21.1056 9.07364C23.0034 8.80247 24.7368 8.90742 26.3547 9.39154C27.3352 9.68493 27.4268 9.71514 28.1048 9.96886C28.9274 10.2767 29.5124 10.2691 29.9714 9.94443C30.1623 9.80944 30.384 9.56432 30.4641 9.39963C30.6793 8.95704 30.6537 8.18592 30.4099 7.76419C30.235 7.46144 30.1216 7.38782 29.3869 7.10005C28.6943 6.82871 27.2258 6.37472 25.9012 6.02244C25.7334 5.97775 25.1357 5.8826 24.5731 5.81085C24.0104 5.73918 23.3827 5.64275 23.178 5.5967C22.8373 5.51993 20.2882 5.50325 18.9258 5.56879Z" fill="#FFC727"/>
<path d="M0.748548 15.5307C0.718205 15.8467 0.62831 16.6606 0.54879 17.3394C0.346242 19.0693 0.366384 20.9162 0.604332 22.4323C0.905233 24.3487 1.10839 25.0125 2.24965 27.8082C2.82739 29.2234 4.55903 31.9854 5.72636 33.3537C6.53333 34.2994 8.09887 35.7774 9.50903 36.9246C10.6927 37.8875 10.9954 37.9563 11.7757 37.4403C12.3839 37.038 12.6729 36.5553 12.6729 35.9416C12.6729 35.6595 12.6148 35.4092 12.5125 35.2499C12.4241 35.1126 11.7611 34.4066 11.039 33.681C8.3063 30.9353 7.81209 30.2626 7.0121 28.2002C6.84679 27.7739 6.67493 27.3486 6.6302 27.255C6.42974 26.8357 6.09588 25.697 5.7942 24.4037C5.49434 23.1185 5.46601 22.8874 5.46051 21.6801C5.45729 20.9545 5.4742 20.0585 5.49818 19.6889L5.54178 19.0169L4.97459 18.7921C3.35961 18.1516 1.95459 16.8778 1.09557 15.2754C1.00149 15.0999 0.897298 14.9562 0.864078 14.9562C0.830858 14.9562 0.778891 15.2148 0.748548 15.5307Z" fill="#FFC727"/>
<path d="M8.28703 21.0312C7.82526 21.27 7.4226 21.7896 7.4213 22.1482C7.4192 22.7088 7.81523 24.6678 8.21283 26.0634C8.67547 27.6874 9.95729 30.5678 10.5044 31.2128C10.5641 31.283 10.8421 31.7043 11.1224 32.149C11.6107 32.9236 12.2489 33.7609 12.9062 34.4896C13.3901 35.026 15.4678 37.0855 15.525 37.0855C15.5534 37.0855 15.6828 36.7696 15.8127 36.3834C15.9425 35.9971 16.1959 35.424 16.3756 35.1096C16.7484 34.4576 17.5735 33.5019 18.1193 33.0898C18.323 32.9359 18.4898 32.7827 18.4898 32.7494C18.4898 32.716 18.2838 32.598 18.0321 32.4869C17.545 32.2722 16.5534 31.7288 16.0485 31.4001C15.3179 30.9244 14 29.6966 13.2883 28.8285C11.7866 26.9967 11.1381 25.4702 10.685 22.6999C10.4976 21.5546 10.353 21.2895 9.7523 20.9902C9.30849 20.7691 8.76441 20.7843 8.28703 21.0312Z" fill="#388E3C"/>
<path d="M21.5568 33.0045C20.5484 33.1809 19.3532 33.7932 18.595 34.522C18.08 35.017 17.9433 35.1893 17.6247 35.7453C16.6323 37.4776 16.7184 39.7348 17.84 41.3841C18.5471 42.4241 19.8 43.3131 21.006 43.6308C22.2829 43.9672 24.0076 43.8405 25.1112 43.3293C26.1553 42.8456 27.2495 41.8134 27.7231 40.8655C29.251 37.8064 27.7719 34.3234 24.476 33.2189C23.7035 32.96 22.3703 32.8622 21.5568 33.0045Z" fill="#388E3C"/>
<path d="M41.7386 22.7365C41.3245 22.8862 40.9161 23.2504 40.7579 23.611C40.6925 23.7601 40.5399 24.258 40.4185 24.7175C39.5827 27.8831 38.823 29.6179 37.6232 31.1013C36.5686 32.4049 35.8792 33.1377 34.6731 34.2369C34.1047 34.755 33.1509 35.5099 32.7372 35.7694C32.1968 36.1081 30.5454 36.912 30.3855 36.9141C30.3227 36.9149 30.2942 37.3819 30.2983 38.3409C30.3041 39.6796 30.2893 39.8133 30.0567 40.5326C29.7873 41.3657 29.4637 41.9868 28.9372 42.6817C28.7225 42.965 28.6433 43.1285 28.7209 43.1285C28.7882 43.1285 29.2505 42.9541 29.7482 42.7409C30.2459 42.5278 30.7905 42.2947 30.9584 42.2229C32.1049 41.7328 32.9265 41.3324 33.5305 40.9695C34.5254 40.3717 36.2085 39.0901 36.984 38.3398C38.0903 37.2693 39.6649 35.3181 40.4354 34.063C41.7546 31.9142 42.5159 30.3331 42.9757 28.787C43.4302 27.2588 44.0372 24.4334 44.0372 23.8461C44.0372 23.4528 43.8374 23.202 43.3211 22.9477C42.7017 22.6424 42.1885 22.574 41.7386 22.7365Z" fill="#388E3C"/>
</svg>
