<svg width="32" height="32" viewBox="0 0 32 32" fill="none" xmlns="http://www.w3.org/2000/svg">
<path d="M26.9219 5.62C26.8204 5.37565 26.6262 5.18147 26.3819 5.08C26.2617 5.02876 26.1326 5.00158 26.0019 5H6.00189C5.73668 5 5.48232 5.10536 5.29479 5.29289C5.10725 5.48043 5.00189 5.73478 5.00189 6C5.00189 6.26522 5.10725 6.51957 5.29479 6.70711C5.48232 6.89464 5.73668 7 6.00189 7H23.5919L5.29189 25.29C5.19816 25.383 5.12377 25.4936 5.073 25.6154C5.02223 25.7373 4.99609 25.868 4.99609 26C4.99609 26.132 5.02223 26.2627 5.073 26.3846C5.12377 26.5064 5.19816 26.617 5.29189 26.71C5.38486 26.8037 5.49546 26.8781 5.61732 26.9289C5.73917 26.9797 5.86988 27.0058 6.00189 27.0058C6.1339 27.0058 6.26461 26.9797 6.38647 26.9289C6.50833 26.8781 6.61893 26.8037 6.71189 26.71L25.0019 8.41V26C25.0019 26.2652 25.1072 26.5196 25.2948 26.7071C25.4823 26.8946 25.7367 27 26.0019 27C26.2671 27 26.5215 26.8946 26.709 26.7071C26.8965 26.5196 27.0019 26.2652 27.0019 26V6C27.0003 5.86932 26.9731 5.74022 26.9219 5.62Z" fill="#141414"/>
</svg>
